<svg width="12" height="19" viewBox="0 0 12 19" fill="none" xmlns="http://www.w3.org/2000/svg">
<path d="M11.8533 7.28909C11.7747 7.17189 11.6687 7.07594 11.5447 7.00968C11.4206 6.94342 11.2823 6.90888 11.1419 6.90909H8.57071V5.18182H10.4563C10.6836 5.18182 10.9016 5.09083 11.0623 4.92886C11.223 4.7669 11.3133 4.54723 11.3133 4.31818V0.863636C11.3133 0.634586 11.223 0.414916 11.0623 0.252953C10.9016 0.09099 10.6836 0 10.4563 0H7.71364C6.39525 0 5.13085 0.527742 4.1986 1.46713C3.26636 2.40652 2.74263 3.6806 2.74263 5.00909V6.90909H0.857071C0.629762 6.90909 0.411763 7.00008 0.251031 7.16204C0.0902985 7.32401 0 7.54368 0 7.77273V11.2273C0 11.4563 0.0902985 11.676 0.251031 11.838C0.411763 11.9999 0.629762 12.0909 0.857071 12.0909H2.74263V18.1364C2.74263 18.3654 2.83293 18.5851 2.99366 18.747C3.15439 18.909 3.37239 19 3.5997 19H7.71364C7.94095 19 8.15895 18.909 8.31968 18.747C8.48041 18.5851 8.57071 18.3654 8.57071 18.1364V12.0909H9.77061C9.94227 12.0911 10.11 12.0393 10.2521 11.9423C10.3942 11.8453 10.5042 11.7075 10.5677 11.5468L11.939 8.09227C11.9908 7.9615 12.01 7.81995 11.9951 7.67996C11.9801 7.53997 11.9315 7.40579 11.8533 7.28909ZM9.1878 10.3636H7.71364C7.48633 10.3636 7.26833 10.4546 7.1076 10.6166C6.94687 10.7786 6.85657 10.9982 6.85657 11.2273V17.2727H4.45677V11.2273C4.45677 10.9982 4.36647 10.7786 4.20574 10.6166C4.04501 10.4546 3.82701 10.3636 3.5997 10.3636H1.71414V8.63636H3.5997C3.82701 8.63636 4.04501 8.54537 4.20574 8.38341C4.36647 8.22145 4.45677 8.00178 4.45677 7.77273V5.00909C4.45903 4.1394 4.80289 3.30598 5.41319 2.69101C6.02348 2.07605 6.85056 1.72955 7.71364 1.72727H9.5992V3.45455H8.91354C8.62335 3.41195 8.32757 3.42982 8.04452 3.50707C7.76146 3.58432 7.49716 3.71929 7.26796 3.90364C7.12888 4.05037 7.02072 4.22396 6.95002 4.41395C6.87931 4.60394 6.84753 4.80639 6.85657 5.00909V7.77273C6.85657 8.00178 6.94687 8.22145 7.1076 8.38341C7.26833 8.54537 7.48633 8.63636 7.71364 8.63636H9.87346L9.1878 10.3636Z" fill="#717171"/>
</svg>
