<svg width="19" height="19" viewBox="0 0 19 19" fill="none" xmlns="http://www.w3.org/2000/svg">
<path d="M13.7275 4.32242C13.5396 4.32242 13.3559 4.37814 13.1997 4.48252C13.0435 4.58691 12.9217 4.73528 12.8498 4.90887C12.7779 5.08246 12.7591 5.27347 12.7957 5.45775C12.8324 5.64204 12.9229 5.81131 13.0557 5.94417C13.1886 6.07703 13.3579 6.16751 13.5422 6.20416C13.7264 6.24082 13.9175 6.22201 14.091 6.1501C14.2646 6.0782 14.413 5.95644 14.5174 5.80021C14.6218 5.64398 14.6775 5.46031 14.6775 5.27242C14.6775 5.02046 14.5774 4.77883 14.3992 4.60067C14.2211 4.42251 13.9795 4.32242 13.7275 4.32242ZM17.3692 6.23825C17.3538 5.5814 17.2307 4.93153 17.005 4.3145C16.8037 3.78657 16.4904 3.30851 16.0867 2.91325C15.6946 2.50746 15.2155 2.19614 14.6854 2.00284C14.07 1.77021 13.4194 1.64438 12.7617 1.63075C11.9225 1.58325 11.6533 1.58325 9.49999 1.58325C7.34666 1.58325 7.07749 1.58325 6.23833 1.63075C5.58057 1.64438 4.92997 1.77021 4.31458 2.00284C3.78549 2.1981 3.30673 2.50915 2.91333 2.91325C2.50754 3.30527 2.19622 3.78443 2.00291 4.3145C1.77029 4.9299 1.64445 5.5805 1.63083 6.23825C1.58333 7.07742 1.58333 7.34658 1.58333 9.49992C1.58333 11.6533 1.58333 11.9224 1.63083 12.7616C1.64445 13.4193 1.77029 14.0699 2.00291 14.6853C2.19622 15.2154 2.50754 15.6946 2.91333 16.0866C3.30673 16.4907 3.78549 16.8017 4.31458 16.997C4.92997 17.2296 5.58057 17.3555 6.23833 17.3691C7.07749 17.4166 7.34666 17.4166 9.49999 17.4166C11.6533 17.4166 11.9225 17.4166 12.7617 17.3691C13.4194 17.3555 14.07 17.2296 14.6854 16.997C15.2155 16.8037 15.6946 16.4924 16.0867 16.0866C16.4922 15.6928 16.8058 15.2143 17.005 14.6853C17.2307 14.0683 17.3538 13.4184 17.3692 12.7616C17.3692 11.9224 17.4167 11.6533 17.4167 9.49992C17.4167 7.34658 17.4167 7.07742 17.3692 6.23825ZM15.9442 12.6666C15.9384 13.1691 15.8474 13.667 15.675 14.1391C15.5486 14.4836 15.3456 14.7949 15.0812 15.0495C14.8245 15.3112 14.5138 15.5138 14.1708 15.6433C13.6988 15.8156 13.2009 15.9067 12.6983 15.9124C11.9067 15.952 11.6137 15.9599 9.53166 15.9599C7.44958 15.9599 7.15666 15.9599 6.36499 15.9124C5.8432 15.9222 5.32363 15.8418 4.82916 15.6749C4.50124 15.5388 4.20482 15.3367 3.95833 15.0812C3.69556 14.8268 3.49508 14.5153 3.3725 14.1708C3.17921 13.6919 3.07201 13.1827 3.05583 12.6666C3.05583 11.8749 3.00833 11.582 3.00833 9.49992C3.00833 7.41783 3.00833 7.12492 3.05583 6.33325C3.05938 5.8195 3.15316 5.31037 3.33291 4.82909C3.47228 4.49493 3.6862 4.19706 3.95833 3.95825C4.19885 3.68605 4.4961 3.46987 4.82916 3.32492C5.31172 3.15079 5.82033 3.05977 6.33333 3.05575C7.12499 3.05575 7.41791 3.00825 9.49999 3.00825C11.5821 3.00825 11.875 3.00825 12.6667 3.05575C13.1692 3.06152 13.6671 3.15253 14.1392 3.32492C14.4989 3.45843 14.8218 3.67551 15.0812 3.95825C15.3407 4.20143 15.5434 4.49875 15.675 4.82909C15.8509 5.31116 15.942 5.82008 15.9442 6.33325C15.9837 7.12492 15.9917 7.41783 15.9917 9.49992C15.9917 11.582 15.9837 11.8749 15.9442 12.6666ZM9.49999 5.43867C8.69709 5.44023 7.91267 5.67975 7.24585 6.12696C6.57902 6.57416 6.05971 7.20899 5.75354 7.95122C5.44737 8.69346 5.36807 9.50979 5.52567 10.2971C5.68326 11.0844 6.07068 11.8073 6.63897 12.3744C7.20726 12.9416 7.93092 13.3276 8.71851 13.4837C9.5061 13.6398 10.3223 13.5589 11.0639 13.2513C11.8055 12.9436 12.4394 12.4231 12.8853 11.7554C13.3312 11.0877 13.5692 10.3028 13.5692 9.49992C13.5702 8.96563 13.4656 8.4364 13.2614 7.94268C13.0572 7.44895 12.7574 7.00048 12.3792 6.62304C12.001 6.24561 11.552 5.94666 11.0578 5.7434C10.5637 5.54014 10.0343 5.43658 9.49999 5.43867ZM9.49999 12.1362C8.97859 12.1362 8.4689 11.9816 8.03537 11.6919C7.60184 11.4022 7.26395 10.9905 7.06442 10.5088C6.86489 10.0271 6.81268 9.49699 6.9144 8.98561C7.01612 8.47423 7.2672 8.00449 7.63588 7.63581C8.00457 7.26712 8.47431 7.01604 8.98569 6.91432C9.49707 6.8126 10.0271 6.86481 10.5088 7.06434C10.9906 7.26387 11.4023 7.60177 11.692 8.0353C11.9816 8.46883 12.1362 8.97852 12.1362 9.49992C12.1362 9.84612 12.0681 10.1889 11.9356 10.5088C11.8031 10.8286 11.6089 11.1192 11.3641 11.364C11.1193 11.6088 10.8287 11.803 10.5088 11.9355C10.189 12.068 9.84619 12.1362 9.49999 12.1362Z" fill="#717171"/>
</svg>
