<svg width="15" height="15" viewBox="0 0 15 15" fill="none" xmlns="http://www.w3.org/2000/svg">
<path d="M13.75 10.5751V12.4501C13.7507 12.6241 13.7151 12.7964 13.6453 12.9559C13.5756 13.1154 13.4733 13.2586 13.3451 13.3762C13.2168 13.4939 13.0654 13.5835 12.9005 13.6393C12.7356 13.695 12.5609 13.7157 12.3875 13.7001C10.4643 13.4911 8.61688 12.8339 6.99375 11.7813C5.48365 10.8217 4.20334 9.54142 3.24375 8.03131C2.18749 6.40081 1.53016 4.54443 1.325 2.61256C1.30939 2.43973 1.32993 2.26554 1.38532 2.10108C1.44071 1.93662 1.52974 1.78549 1.64673 1.65732C1.76373 1.52916 1.90613 1.42675 2.06487 1.35664C2.22361 1.28652 2.39522 1.25022 2.56875 1.25006H4.44375C4.74707 1.24708 5.04112 1.35448 5.27111 1.55227C5.50109 1.75005 5.6513 2.02471 5.69375 2.32506C5.77289 2.9251 5.91966 3.51426 6.13125 4.08131C6.21534 4.30501 6.23354 4.54813 6.1837 4.78186C6.13385 5.01559 6.01804 5.23013 5.85 5.40006L5.05625 6.19381C5.94598 7.75853 7.24154 9.05409 8.80625 9.94381L9.6 9.15006C9.76993 8.98202 9.98448 8.86622 10.2182 8.81637C10.4519 8.76652 10.6951 8.78472 10.9188 8.86881C11.4858 9.0804 12.075 9.22717 12.675 9.30631C12.9786 9.34914 13.2559 9.50206 13.4541 9.73599C13.6523 9.96992 13.7576 10.2685 13.75 10.5751Z" stroke="#717171" stroke-linecap="round" stroke-linejoin="round"/>
</svg>
