<svg width="36" height="36" viewBox="0 0 36 36" fill="none" xmlns="http://www.w3.org/2000/svg">
<circle cx="18" cy="18" r="18" fill="white"/>
<path d="M26.3333 22.0999V24.5999C26.3343 24.832 26.2867 25.0617 26.1937 25.2744C26.1008 25.487 25.9644 25.6779 25.7934 25.8348C25.6224 25.9917 25.4205 26.1112 25.2006 26.1855C24.9808 26.2599 24.7478 26.2875 24.5167 26.2666C21.9523 25.988 19.4892 25.1117 17.325 23.7083C15.3115 22.4288 13.6044 20.7217 12.325 18.7083C10.9166 16.5343 10.0402 14.0591 9.76665 11.4833C9.74583 11.2528 9.77321 11.0206 9.84707 10.8013C9.92092 10.582 10.0396 10.3805 10.1956 10.2096C10.3516 10.0387 10.5415 9.90218 10.7531 9.80869C10.9648 9.7152 11.1936 9.6668 11.425 9.66658H13.925C14.3294 9.6626 14.7215 9.80582 15.0281 10.0695C15.3348 10.3332 15.535 10.6995 15.5917 11.0999C15.6972 11.9 15.8929 12.6855 16.175 13.4416C16.2871 13.7399 16.3114 14.064 16.2449 14.3757C16.1784 14.6873 16.024 14.9733 15.8 15.1999L14.7417 16.2583C15.9279 18.3445 17.6554 20.072 19.7417 21.2583L20.8 20.1999C21.0266 19.9759 21.3126 19.8215 21.6243 19.755C21.9359 19.6885 22.26 19.7128 22.5583 19.8249C23.3144 20.107 24.0999 20.3027 24.9 20.4083C25.3048 20.4654 25.6745 20.6693 25.9388 20.9812C26.203 21.2931 26.3435 21.6912 26.3333 22.0999Z" stroke="#111111" stroke-linecap="round" stroke-linejoin="round"/>
</svg>
